<svg width="20" height="20" view-box="0 0 20 20" fill="white" xmlns="http://www.w3.org/2000/svg">
  <path fill-rule="evenodd" clip-rule="evenodd" d="M2.40538 2.8108C2.27541 2.77316 2.09898 2.76434 1.38207 2.76434H0.88217C0.648204 2.76434 0.42382 2.6714 0.258381 2.50596C0.0929425 2.34052 0 2.11614 0 1.88217C0 1.6482 0.0929425 1.42382 0.258381 1.25838C0.42382 1.09294 0.648204 1 0.88217 1H1.49087C2.04193 1 2.49184 0.999412 2.89528 1.11586C3.73393 1.35757 4.43084 1.95451 4.77371 2.76434H17.3511C17.6099 2.76434 17.8416 2.76434 18.0333 2.7761C18.2333 2.78786 18.4591 2.81492 18.6861 2.90255C19.0416 3.03972 19.3521 3.2729 19.5829 3.5761C19.8138 3.8793 19.9559 4.24063 19.9935 4.61984C20.0109 4.84212 19.9934 5.06575 19.9417 5.28264C19.891 5.50433 19.8342 5.72457 19.7712 5.94309C19.3083 7.62098 18.8437 9.29886 18.3821 10.9773C18.2703 11.3843 18.1727 11.7389 17.9957 12.0412C17.6432 12.6434 17.0672 13.0819 16.3931 13.2616C16.0549 13.3516 15.6873 13.351 15.2645 13.3504C12.7032 13.348 10.1414 13.3474 7.5796 13.3504C7.11499 13.351 6.71096 13.3516 6.3475 13.2469C5.98886 13.1432 5.6562 12.9649 5.37138 12.7235C5.08656 12.4822 4.85602 12.1833 4.69491 11.8466C4.53141 11.5055 4.46554 11.1067 4.38909 10.6486C4.04681 8.57725 3.69923 6.5065 3.35401 4.43517C3.23639 3.72767 3.19875 3.55535 3.13994 3.43302C3.06831 3.28337 2.96583 3.15056 2.83923 3.04332C2.71263 2.93608 2.56478 2.85684 2.40538 2.8108ZM5.15775 4.52868L6.11344 10.2593C6.21577 10.8738 6.24517 11.0003 6.28575 11.085C6.33952 11.1972 6.41642 11.2967 6.51139 11.3771C6.60637 11.4575 6.71727 11.5169 6.83681 11.5513C6.92738 11.5778 7.05677 11.5866 7.67958 11.5866H15.1745C15.7391 11.5866 15.8549 11.579 15.939 11.5566C16.1637 11.4967 16.3556 11.3504 16.473 11.1497C16.5172 11.0744 16.5554 10.9644 16.7054 10.4204L18.0639 5.49671C18.1415 5.21736 18.1886 5.04563 18.2162 4.91566C18.2339 4.83332 18.2368 4.79686 18.2374 4.78745C18.2311 4.73561 18.2111 4.68639 18.1795 4.64484C18.1478 4.60329 18.1057 4.57091 18.0574 4.55103C18.0147 4.54334 17.9714 4.53862 17.928 4.53691C17.728 4.52892 17.5278 4.52617 17.3276 4.52868H5.15834H5.15775Z" />
  <path d="M5.88113 17.1731C5.88113 16.7832 6.03604 16.4092 6.31177 16.1335C6.5875 15.8577 6.96147 15.7028 7.35142 15.7028C7.74136 15.7028 8.11533 15.8577 8.39106 16.1335C8.6668 16.4092 8.8217 16.7832 8.8217 17.1731C8.8217 17.5631 8.6668 17.937 8.39106 18.2128C8.11533 18.4885 7.74136 18.6434 7.35142 18.6434C6.96147 18.6434 6.5875 18.4885 6.31177 18.2128C6.03604 17.937 5.88113 17.5631 5.88113 17.1731ZM13.5266 17.1731C13.5266 16.7832 13.6815 16.4092 13.9572 16.1335C14.233 15.8577 14.6069 15.7028 14.9969 15.7028C15.3868 15.7028 15.7608 15.8577 16.0365 16.1335C16.3123 16.4092 16.4672 16.7832 16.4672 17.1731C16.4672 17.5631 16.3123 17.937 16.0365 18.2128C15.7608 18.4885 15.3868 18.6434 14.9969 18.6434C14.6069 18.6434 14.233 18.4885 13.9572 18.2128C13.6815 17.937 13.5266 17.5631 13.5266 17.1731Z" />
</svg>