<svg width="20" height="20" view-box="0 0 20 20" fill="white" xmlns="http://www.w3.org/2000/svg">
  <path d="M5.29312 13.7849L13.7849 5.29312L15.2002 6.70842L6.70842 15.2002L5.29312 13.7849Z" />
  <path d="M6.70842 13.7849C7.09924 14.1757 7.09924 14.8094 6.70842 15.2002C6.31759 15.591 5.68394 15.591 5.29312 15.2002C4.90229 14.8094 4.90229 14.1757 5.29312 13.7849C5.68394 13.3941 6.31759 13.3941 6.70842 13.7849Z" />
  <path d="M15.2002 5.29312C15.591 5.68394 15.591 6.31759 15.2002 6.70842C14.8094 7.09924 14.1757 7.09924 13.7849 6.70842C13.3941 6.31759 13.3941 5.68394 13.7849 5.29312C14.1757 4.90229 14.8094 4.90229 15.2002 5.29312Z" />
  <path d="M13.7849 15.2002L5.29312 6.70842L6.70842 5.29312L15.2002 13.7849L13.7849 15.2002Z" />
  <path d="M13.7849 13.7849C14.1757 13.3941 14.8094 13.3941 15.2002 13.7849C15.591 14.1757 15.591 14.8094 15.2002 15.2002C14.8094 15.591 14.1757 15.591 13.7849 15.2002C13.3941 14.8094 13.3941 14.1757 13.7849 13.7849Z" />
  <path d="M5.29312 5.29312C5.68394 4.90229 6.31759 4.90229 6.70842 5.29312C7.09924 5.68394 7.09924 6.31759 6.70842 6.70842C6.31759 7.09924 5.68394 7.09924 5.29312 6.70842C4.90229 6.31759 4.90229 5.68394 5.29312 5.29312Z" />
</svg>