<svg width="8" height="13" view-box="0 0 8 13" fill="white" xmlns="http://www.w3.org/2000/svg">
  <path d="M8 1.5C8 2.32845 7.32845 3 6.5 3C5.67155 3 5 2.32845 5 1.5C5 0.67155 5.67155 0 6.5 0C7.32845 0 8 0.67155 8 1.5Z" />
  <path d="M3 6.5C3 7.32845 2.32845 8 1.5 8C0.67155 8 0 7.32845 0 6.5C0 5.67155 0.67155 5 1.5 5C2.32845 5 3 5.67155 3 6.5Z" />
  <path d="M8 6.5C8 7.32845 7.32845 8 6.5 8C5.67155 8 5 7.32845 5 6.5C5 5.67155 5.67155 5 6.5 5C7.32845 5 8 5.67155 8 6.5Z" />
  <path d="M3 11.5C3 12.3284 2.32845 13 1.5 13C0.67155 13 0 12.3284 0 11.5C0 10.6716 0.67155 10 1.5 10C2.32845 10 3 10.6716 3 11.5Z" />
  <path d="M8 11.5C8 12.3284 7.32845 13 6.5 13C5.67155 13 5 12.3284 5 11.5C5 10.6716 5.67155 10 6.5 10C7.32845 10 8 10.6716 8 11.5Z" />
  <path d="M3 1.5C3 2.32845 2.32845 3 1.5 3C0.67155 3 0 2.32845 0 1.5C0 0.67155 0.67155 0 1.5 0C2.32845 0 3 0.67155 3 1.5Z" />
</svg>