<svg width="20" height="20" view-box="0 0 20 20" fill="white" xmlns="http://www.w3.org/2000/svg">
  <path fill-rule="evenodd" clip-rule="evenodd" d="M9.95956 5.7561C9.21101 5.7561 8.57961 6.22164 8.40091 6.85301C8.26798 7.32263 7.74157 7.60535 7.22513 7.48448C6.70869 7.36361 6.39779 6.88491 6.53071 6.41528C6.92368 5.02688 8.30853 4 9.95956 4C11.9149 4 13.5 5.44142 13.5 7.21952C13.5 8.63745 12.6581 9.37414 12.0265 9.91019L12.016 9.91913C11.4006 10.4414 11.0221 10.7627 10.9155 11.4412C10.84 11.9213 10.3509 12.2549 9.82303 12.1863C9.29512 12.1177 8.9283 11.673 9.00371 11.1929C9.20799 9.89255 10.0376 9.19274 10.6219 8.69992C10.6515 8.67489 10.6806 8.6504 10.7089 8.62639C11.2842 8.13806 11.5688 7.85035 11.5688 7.21951C11.5689 6.41129 10.8483 5.7561 9.95956 5.7561Z" />
  <path d="M11.247 14.8293C11.247 15.4758 10.6706 16 9.95958 16C9.24855 16 8.67215 15.4758 8.67215 14.8293C8.67215 14.1827 9.24855 13.6585 9.95958 13.6585C10.6706 13.6585 11.247 14.1827 11.247 14.8293Z" />
  <path fill-rule="evenodd" clip-rule="evenodd" d="M10 18C14.4183 18 18 14.4183 18 10C18 5.58172 14.4183 2 10 2C5.58172 2 2 5.58172 2 10C2 14.4183 5.58172 18 10 18ZM10 20C15.5228 20 20 15.5228 20 10C20 4.47715 15.5228 0 10 0C4.47715 0 0 4.47715 0 10C0 15.5228 4.47715 20 10 20Z" />
</svg>