<svg width="20" height="20" view-box="0 0 20 20" fill="white" xmlns="http://www.w3.org/2000/svg">
  <path fill-rule="evenodd" clip-rule="evenodd" d="M14.861 4C15.9414 4.00241 16.9948 4.32265 17.8788 4.91722C18.4153 5.25359 18.8721 5.69416 19.2195 6.21052L19.2519 6.2594C19.5811 6.763 19.7999 7.32559 19.8951 7.91302C20.2322 9.60407 19.7396 11.1171 18.666 12.1873C17.6983 13.1519 16.2901 13.7266 14.6742 13.7798C14.6443 14.1582 14.5665 14.6066 14.3696 15.0368C14.0643 15.7039 13.4801 16.3087 12.4413 16.5575C12.4005 16.5672 12.3585 16.5722 12.3165 16.5722H11.8861C10.3922 16.6019 8.08152 16.6168 6.14618 16.6242C5.17637 16.6279 4.2997 16.6297 3.66549 16.6306C3.34838 16.6311 3.09185 16.6313 2.91459 16.6315L2.83872 16.6315C2.78584 16.6315 2.74283 16.6316 2.71047 16.6316H2.63931L2.63928 16.6315C1.98584 16.6339 1.35622 16.3965 0.879916 15.9679C0.40303 15.5388 0.116155 14.9509 0.0783934 14.3252C0.0781953 14.3219 0.0780203 14.3186 0.0778909 14.3154C0.0154668 12.7306 -1.15034e-08 10.4943 0 8.65953C1.1931e-08 7.741 0.00389082 6.92109 0.00777234 6.33079C0.00971319 6.03563 0.0116425 5.79783 0.0130991 5.63376C0.0138273 5.55173 0.0144492 5.48811 0.0148746 5.44499C0.0149825 5.43405 0.0150721 5.42444 0.0151492 5.41617C0.0152242 5.40812 0.0152873 5.40135 0.0153437 5.39589L0.0154777 5.38334L0.0155112 5.38017V5.20589C0.0155112 5.19725 0.0157406 5.18859 0.0162147 5.17996C0.0321793 4.88951 0.153135 4.6134 0.358331 4.39899C0.56353 4.18459 0.840208 4.04522 1.14093 4.00478L1.15871 4.0027C1.17656 4.0009 1.1945 4 1.21245 4H14.861ZM1.0369 6.33699C1.03884 6.04263 1.04078 5.80556 1.04223 5.64214L1.04468 5.22242C1.05005 5.16388 1.07539 5.10857 1.11697 5.06512C1.15474 5.02566 1.20385 4.99814 1.25781 4.98576H14.8586L14.8995 4.98605C15.7569 4.99586 16.5915 5.25425 17.2929 5.72765C17.2981 5.73111 17.3032 5.73446 17.3085 5.73773C17.7273 5.99899 18.0837 6.34209 18.3544 6.74451L18.3545 6.74458C18.6252 7.14696 18.8042 7.59961 18.8796 8.07286C18.8806 8.07912 18.8817 8.08537 18.8829 8.09159C19.1631 9.48721 18.7562 10.6747 17.9239 11.5043C17.0856 12.3398 15.7771 12.8492 14.1962 12.7941C14.0565 12.7893 13.9208 12.839 13.8203 12.9319C13.7197 13.0248 13.6629 13.1529 13.6629 13.2867C13.6629 13.6884 13.6304 14.1967 13.427 14.6411C13.2414 15.0466 12.9092 15.4127 12.25 15.5864H11.8822L11.8715 15.5865C10.3876 15.6161 8.08086 15.631 6.14206 15.6384C5.17331 15.6421 4.29752 15.644 3.66392 15.6449C3.34713 15.6453 3.09089 15.6456 2.91389 15.6457L2.83802 15.6457L2.75459 15.6458L2.71013 15.6458H2.6368C2.24601 15.6476 1.86938 15.5057 1.58455 15.2495C1.30041 14.9938 1.12923 14.6437 1.10602 14.271C1.04463 12.707 1.02916 10.491 1.02916 8.65953C1.02916 7.74355 1.03303 6.92576 1.0369 6.33699Z" />
  <path fill-rule="evenodd" clip-rule="evenodd" d="M15.1016 6.25786C15.4801 6.24754 15.8558 6.32399 16.1972 6.48097C16.5385 6.63788 16.8356 6.87067 17.0639 7.1598C17.4577 7.62684 17.6715 8.20925 17.6698 8.80916C17.7245 9.40343 17.554 9.99708 17.189 10.4812C16.8183 10.9728 16.2726 11.3175 15.6549 11.4503C15.6375 11.4541 15.6198 11.4569 15.6021 11.4589C15.1249 11.5124 14.6444 11.5334 14.1642 11.5215C13.8853 11.5146 13.6629 11.2961 13.6629 11.0288V6.75074C13.6629 6.47853 13.8933 6.25786 14.1775 6.25786H15.1016ZM15.1249 7.24336C15.3415 7.23653 15.5565 7.27986 15.7519 7.36966C15.9472 7.45947 16.117 7.59311 16.2469 7.75922C16.251 7.76447 16.2553 7.76963 16.2596 7.77472C16.511 8.07085 16.6458 8.44217 16.6405 8.82383C16.6403 8.84229 16.6411 8.86074 16.643 8.87912C16.6808 9.24302 16.5782 9.6076 16.3547 9.90406C16.1361 10.194 15.8165 10.3991 15.4541 10.4829C15.2009 10.5105 14.9467 10.5279 14.6921 10.5351V7.24362H15.108C15.1136 7.24362 15.1193 7.24354 15.1249 7.24336Z" />
  <path d="M7.26859 13.5766C7.44345 13.6344 7.50177 13.5766 7.50177 13.5766C7.50177 13.5766 9.54217 11.7297 10.4749 10.633C11.2911 9.65178 11.3494 8.09339 9.95025 7.45848C8.5511 6.82357 7.38517 8.1511 7.38517 8.1511C7.00388 7.68785 6.45373 7.39182 5.8537 7.32704C5.25369 7.26221 4.65201 7.43384 4.17881 7.80481L4.12052 7.86252C3.42096 8.61284 3.65415 9.88265 4.17881 10.5753C5.11127 11.5947 6.10408 12.5584 7.15198 13.4612L7.26859 13.5766Z" fill="#FF5E5B"/>
</svg>