<svg width="20" height="20" view-box="0 0 20 20" fill="white" xmlns="http://www.w3.org/2000/svg">
  <path d="M4.34315 15.6569C4.73367 16.0474 4.73367 16.6805 4.34315 17.0711C3.95262 17.4616 3.31946 17.4616 2.92893 17.0711C2.53841 16.6805 2.53841 16.0474 2.92893 15.6569C3.31946 15.2663 3.95262 15.2663 4.34315 15.6569Z" />
  <path d="M17.0711 2.92893C17.4616 3.31946 17.4616 3.95262 17.0711 4.34315C16.6805 4.73367 16.0474 4.73367 15.6569 4.34315C15.2663 3.95262 15.2663 3.31946 15.6569 2.92893C16.0474 2.53841 16.6805 2.53841 17.0711 2.92893Z" />
  <path d="M2.92893 15.6569L15.6569 2.92893L17.0711 4.34315L4.34315 17.0711L2.92893 15.6569Z" />
  <path d="M15.6569 15.6569C16.0474 15.2663 16.6805 15.2663 17.0711 15.6569C17.4616 16.0474 17.4616 16.6805 17.0711 17.0711C16.6805 17.4616 16.0474 17.4616 15.6569 17.0711C15.2663 16.6805 15.2663 16.0474 15.6569 15.6569Z" />
  <path d="M2.92893 2.92893C3.31946 2.53841 3.95262 2.53841 4.34315 2.92893C4.73367 3.31946 4.73367 3.95262 4.34315 4.34315C3.95262 4.73367 3.31946 4.73367 2.92893 4.34315C2.53841 3.95262 2.53841 3.31946 2.92893 2.92893Z" />
  <path d="M15.6569 17.0711L2.92893 4.34315L4.34315 2.92893L17.0711 15.6569L15.6569 17.0711Z" />
</svg>