<svg width="20" height="20" view-box="0 0 20 20" fill="white" xmlns="http://www.w3.org/2000/svg">
  <path fill-rule="evenodd" clip-rule="evenodd" d="M8.15748 2H11.8425C12.767 1.99999 13.5066 1.99999 14.1042 2.04881C14.7175 2.09893 15.2471 2.20418 15.7341 2.45232C16.5149 2.8502 17.1498 3.48507 17.5477 4.26594C17.7958 4.75294 17.9011 5.28248 17.9512 5.89581C18 6.4934 18 7.23295 18 8.15746V11.8425C18 12.767 18 13.5066 17.9512 14.1042C17.9011 14.7175 17.7958 15.2471 17.5477 15.7341C17.1498 16.5149 16.5149 17.1498 15.7341 17.5477C15.2471 17.7958 14.7175 17.9011 14.1042 17.9512C13.5066 18 12.767 18 11.8425 18H8.15746C7.23295 18 6.4934 18 5.89581 17.9512C5.28248 17.9011 4.75294 17.7958 4.26594 17.5477C3.48507 17.1498 2.8502 16.5149 2.45232 15.7341C2.20418 15.2471 2.09893 14.7175 2.04881 14.1042C1.99999 13.5066 1.99999 12.767 2 11.8425V8.15748C1.99999 7.23296 1.99999 6.4934 2.04881 5.89581C2.09893 5.28248 2.20418 4.75294 2.45232 4.26594C2.8502 3.48507 3.48507 2.8502 4.26594 2.45232C4.75294 2.20418 5.28248 2.09893 5.89581 2.04881C6.4934 1.99999 7.23296 1.99999 8.15748 2ZM6.01796 3.54383C5.49738 3.58636 5.18722 3.66639 4.94693 3.78883C4.4483 4.0429 4.0429 4.4483 3.78883 4.94693C3.66639 5.18722 3.58636 5.49738 3.54383 6.01796C3.53174 6.16599 3.52298 6.32567 3.51664 6.5H16.4834C16.477 6.32567 16.4683 6.16599 16.4562 6.01796C16.4136 5.49738 16.3336 5.18722 16.2112 4.94693C15.9571 4.4483 15.5517 4.0429 15.0531 3.78883C14.8128 3.66639 14.5026 3.58636 13.982 3.54383C13.4527 3.50058 12.7745 3.5 11.81 3.5H8.19C7.22554 3.5 6.54729 3.50058 6.01796 3.54383ZM16.5 8H3.50002C3.5 8.06208 3.5 8.1254 3.5 8.19V11.81C3.5 12.7745 3.50058 13.4527 3.54383 13.982C3.58636 14.5026 3.66639 14.8128 3.78883 15.0531C4.0429 15.5517 4.4483 15.9571 4.94693 16.2112C5.18722 16.3336 5.49738 16.4136 6.01796 16.4562C6.54729 16.4994 7.22554 16.5 8.19 16.5H11.81C12.7745 16.5 13.4527 16.4994 13.982 16.4562C14.5026 16.4136 14.8128 16.3336 15.0531 16.2112C15.5517 15.9571 15.9571 15.5517 16.2112 15.0531C16.3336 14.8128 16.4136 14.5026 16.4562 13.982C16.4994 13.4527 16.5 12.7745 16.5 11.81V8.19C16.5 8.1254 16.5 8.06208 16.5 8Z"/>
</svg>