<svg width="20" height="20" view-box="0 0 20 20" fill="white" xmlns="http://www.w3.org/2000/svg">
  <path d="M2.16866 9.4574C6.73205 7.34056 9.77503 5.945 11.2976 5.27074C15.6448 3.34558 16.5481 3.01116 17.1369 3.00012C17.2664 2.99769 17.5559 3.03186 17.7435 3.19389C17.9018 3.33071 17.9454 3.51553 17.9663 3.64524C17.9871 3.77496 18.0131 4.07046 17.9924 4.30136C17.7569 6.93675 16.7375 13.3322 16.2189 16.2838C15.9995 17.5328 15.5674 17.9516 15.1492 17.9926C14.4293 18.0631 13.8466 17.6208 13.198 17.1285C13.0276 16.9992 12.8526 16.8663 12.6694 16.7384C11.9502 16.2365 11.3943 15.8335 10.837 15.4294C10.3267 15.0594 9.81519 14.6885 9.17597 14.24C7.84579 13.3067 8.40261 12.7352 9.14514 11.9731C9.26534 11.8497 9.39041 11.7213 9.51313 11.5856C9.56791 11.525 9.8359 11.2598 10.2137 10.8858C10.3652 10.7359 10.5344 10.5684 10.7145 10.3897C11.9754 9.13875 13.7747 7.33473 13.8264 7.10001C13.8361 7.056 13.8451 6.89197 13.7536 6.80535C13.6621 6.71873 13.527 6.74835 13.4295 6.77191C13.2913 6.8053 11.0904 8.35418 6.82663 11.4185C6.2019 11.8753 5.63604 12.0978 5.12904 12.0862C4.57012 12.0733 3.49498 11.7497 2.69573 11.4731C2.57835 11.4325 2.46385 11.3941 2.35335 11.3571C1.54097 11.0852 0.944396 10.8854 1.00412 10.3782C1.03946 10.0781 1.42764 9.77115 2.16866 9.4574Z" />
</svg>