<svg width="32" height="32" viewBox="0 0 32 32" fill="none" xmlns="http://www.w3.org/2000/svg">
<rect width="32" height="32" rx="8" fill="black"/>
<path d="M26.7236 10.62C25.6718 8.52388 24.0297 6.78188 22 5.60906C20.1723 4.55293 18.1023 3.99998 16 4C15.7677 4 15.535 4.00675 15.3023 4.02032L15.4418 6.418C15.6265 6.4074 15.8126 6.40203 16 6.40203C19.7523 6.40203 23.0018 8.55662 24.5807 11.6971L26.7236 10.62Z" fill="white"/>
<path d="M7.97842 10.7298L5.97415 9.41047C4.9465 10.9743 4.29825 12.7568 4.08114 14.6159C4.02696 15.0798 4 15.5454 4 16.0102C4 17.4076 4.2437 18.798 4.72369 20.1179L6.9765 19.2972C6.60348 18.2717 6.4 17.1647 6.4 16.0102C6.4 14.0597 6.98067 12.245 7.97842 10.7298Z" fill="white"/>
<path d="M9.41206 22.9989L7.7651 24.746C9.81719 26.6837 12.4858 27.8358 15.3023 28L15.4418 25.6023C13.1121 25.4686 11.005 24.5035 9.41206 22.9989Z" fill="white"/>
<path d="M19.8033 24.8347L20.753 27.0381C22.4701 26.2967 23.9904 25.164 25.1925 23.7301L23.3542 22.1863C22.3991 23.3242 21.1853 24.2373 19.8033 24.8347Z" fill="white"/>
<path d="M25.3433 18.2265C25.5112 17.515 25.6 16.7729 25.6 16.0102L28 16.0102C28 16.0272 28 16.0442 27.9999 16.0612C27.996 16.9767 27.8875 17.8889 27.6765 18.7799L25.3433 18.2265Z" fill="white"/>
<path d="M23.2 16.0102C23.2 14.343 22.6224 12.7274 21.5657 11.4387C20.5089 10.1499 19.0384 9.26777 17.4046 8.94253C15.7709 8.61728 14.075 8.86905 12.6059 9.65495C11.1369 10.4408 9.98552 11.7122 9.34806 13.2525C8.7106 14.7928 8.62648 16.5066 9.11002 18.102C9.59357 19.6974 10.6149 21.0756 11.9999 22.0018C13.3849 22.928 15.048 23.345 16.7057 23.1816C18.3635 23.0181 19.9133 22.2845 21.0912 21.1056L16 16.0102H23.2Z" fill="white"/>
</svg>
